<svg width="260" height="297" viewBox="0 0 260 297" fill="none" xmlns="http://www.w3.org/2000/svg">
<path d="M201.54 20.5208L256.27 52.7208L255.749 116.219L200.498 147.516L145.768 115.316L146.288 51.8186L201.54 20.5208Z" fill="url(#paint0_linear)"/>
<path d="M202.3 19.2279L201.554 18.7888L200.8 19.2156L145.549 50.5134L144.796 50.9403L144.788 51.8063L144.268 115.304L144.26 116.17L145.007 116.609L199.737 148.809L200.484 149.248L201.237 148.822L256.488 117.524L257.242 117.097L257.249 116.231L257.77 52.7331L257.777 51.8671L257.031 51.428L202.3 19.2279Z" stroke="#717171" stroke-opacity="0.5" stroke-width="3"/>
<path d="M32.508 51.9768L86.7832 20.9856L140.76 52.4936L140.462 114.993L86.1865 145.984L32.2097 114.476L32.508 51.9768Z" fill="url(#paint1_linear)"/>
<path d="M31.7642 50.6742L31.0122 51.1036L31.008 51.9697L30.7097 114.469L30.7056 115.335L31.4535 115.772L85.4303 147.28L86.1782 147.716L86.9303 147.287L141.205 116.295L141.957 115.866L141.962 115L142.26 52.5007L142.264 51.6347L141.516 51.1981L87.5394 19.6901L86.7914 19.2535L86.0394 19.6829L31.7642 50.6742Z" stroke="#717171" stroke-opacity="0.5" stroke-width="3"/>
<path d="M77.1 50.9999C68.9821 50.9999 62.4 57.5757 62.4 65.6917C62.4 73.8076 68.9821 80.3834 77.1 80.3834C85.2179 80.3834 91.8 73.8076 91.8 65.6917C91.8 57.5757 85.2179 50.9999 77.1 50.9999Z" fill="white"/>
<path d="M68.7 88.7753C60.5819 88.7753 54 95.3541 54 103.473V113.962H100.2V103.473C100.2 95.3541 93.6181 88.7753 85.5 88.7753H68.7Z" fill="white"/>
<path d="M106.5 92.9999H104.4V114H117V103.5C117 97.7009 112.299 92.9999 106.5 92.9999Z" fill="white"/>
<path d="M102.3 67.7999C96.501 67.7999 91.8 72.5009 91.8 78.2999C91.8 84.0989 96.501 88.7999 102.3 88.7999C108.099 88.7999 112.8 84.0989 112.8 78.2999C112.8 72.5009 108.099 67.7999 102.3 67.7999Z" fill="white"/>
<path d="M142.5 120L196.627 151.25V213.75L142.5 245L88.3734 213.75V151.25L142.5 120Z" fill="url(#paint2_linear)"/>
<path d="M143.25 118.701L142.5 118.268L141.75 118.701L87.6234 149.951L86.8734 150.384V151.25V213.75V214.616L87.6234 215.049L141.75 246.299L142.5 246.732L143.25 246.299L197.377 215.049L198.127 214.616V213.75V151.25V150.384L197.377 149.951L143.25 118.701Z" stroke="url(#paint3_linear)" stroke-opacity="0.5" stroke-width="3"/>
<path d="M169.8 174.1C169.8 165.946 166.222 158.625 160.558 153.625L157.779 156.774C162.578 161.01 165.6 167.201 165.6 174.1C165.6 186.858 155.258 197.2 142.5 197.2C136.582 197.2 131.189 194.978 127.1 191.318L124.299 194.448C128.64 198.333 134.235 200.851 140.4 201.32V209.8H127.8V214H157.2V209.8H144.6V201.32C158.696 200.248 169.8 188.471 169.8 174.1Z" fill="white"/>
<path d="M142.5 159.4C134.381 159.4 127.8 165.981 127.8 174.1C127.8 182.219 134.381 188.8 142.5 188.8C150.618 188.8 157.2 182.219 157.2 174.1C157.2 165.981 150.618 159.4 142.5 159.4Z" fill="white"/>
<path fill-rule="evenodd" clip-rule="evenodd" d="M169 58.2971C169 54.8149 171.819 51.9999 175.3 51.9999H225.7C229.181 51.9999 232 54.8149 232 58.2971V96.0725C232 99.5547 229.181 102.37 225.7 102.37H201.2L184.959 114.542C184.323 115.019 183.472 115.095 182.761 114.74C182.049 114.384 181.6 113.657 181.6 112.861V102.37H175.3C171.819 102.37 169 99.5547 169 96.0725V58.2971ZM185.8 68.7889H215.2V72.9889H185.8V68.7889ZM185.8 81.3807H206.8V85.5807H185.8V81.3807Z" fill="white"/>
<path d="M92.4 288.4C90.3 293.767 85.9 296.483 79.2 296.55C76.3 296.55 73.7333 295.933 71.5 294.7C69.2667 293.433 67.5333 291.7 66.3 289.5C65.0667 287.3 64.45 284.767 64.45 281.9C64.45 279.1 65.05 276.6 66.25 274.4C67.4833 272.2 69.2167 270.483 71.45 269.25C73.7167 267.983 76.3167 267.35 79.25 267.35C81.35 267.35 83.2333 267.75 84.9 268.55C86.5667 269.317 87.8667 270.383 88.8 271.75V267.85H91.8V276.35L89.1 276.45C88.0667 274.317 86.7667 272.767 85.2 271.8C83.6333 270.833 81.7167 270.35 79.45 270.35C77.2833 270.35 75.3667 270.867 73.7 271.9C72.0667 272.9 70.8 274.267 69.9 276C69 277.733 68.55 279.683 68.55 281.85C68.55 284.183 69.0167 286.233 69.95 288C70.8833 289.767 72.1833 291.133 73.85 292.1C75.5167 293.067 77.3833 293.55 79.45 293.55C81.7167 293.55 83.7333 293.017 85.5 291.95C87.3 290.883 88.6 289.2 89.4 286.9L92.4 288.4ZM112.952 296.55C109.952 296.55 107.285 295.9 104.952 294.6C102.652 293.267 100.869 291.5 99.602 289.3C98.3353 287.067 97.702 284.633 97.702 282C97.702 279.367 98.3353 276.933 99.602 274.7C100.869 272.433 102.652 270.65 104.952 269.35C107.285 268.017 109.952 267.35 112.952 267.35C115.952 267.35 118.602 268.017 120.902 269.35C123.235 270.65 125.035 272.433 126.302 274.7C127.569 276.933 128.202 279.367 128.202 282C128.202 284.633 127.569 287.067 126.302 289.3C125.035 291.5 123.235 293.267 120.902 294.6C118.602 295.9 115.952 296.55 112.952 296.55ZM112.952 293.55C115.185 293.55 117.119 293.033 118.752 292C120.385 290.967 121.635 289.583 122.502 287.85C123.402 286.083 123.852 284.133 123.852 282C123.852 279.833 123.402 277.867 122.502 276.1C121.635 274.333 120.385 272.933 118.752 271.9C117.119 270.833 115.185 270.3 112.952 270.3C110.719 270.3 108.785 270.833 107.152 271.9C105.519 272.933 104.269 274.35 103.402 276.15C102.535 277.917 102.102 279.883 102.102 282.05C102.102 284.217 102.535 286.167 103.402 287.9C104.269 289.633 105.519 291.017 107.152 292.05C108.785 293.05 110.719 293.55 112.952 293.55ZM148.401 296.55C145.401 296.55 142.735 295.9 140.401 294.6C138.101 293.267 136.318 291.5 135.051 289.3C133.785 287.067 133.151 284.633 133.151 282C133.151 279.367 133.785 276.933 135.051 274.7C136.318 272.433 138.101 270.65 140.401 269.35C142.735 268.017 145.401 267.35 148.401 267.35C151.401 267.35 154.051 268.017 156.351 269.35C158.685 270.65 160.485 272.433 161.751 274.7C163.018 276.933 163.651 279.367 163.651 282C163.651 284.633 163.018 287.067 161.751 289.3C160.485 291.5 158.685 293.267 156.351 294.6C154.051 295.9 151.401 296.55 148.401 296.55ZM148.401 293.55C150.635 293.55 152.568 293.033 154.201 292C155.835 290.967 157.085 289.583 157.951 287.85C158.851 286.083 159.301 284.133 159.301 282C159.301 279.833 158.851 277.867 157.951 276.1C157.085 274.333 155.835 272.933 154.201 271.9C152.568 270.833 150.635 270.3 148.401 270.3C146.168 270.3 144.235 270.833 142.601 271.9C140.968 272.933 139.718 274.35 138.851 276.15C137.985 277.917 137.551 279.883 137.551 282.05C137.551 284.217 137.985 286.167 138.851 287.9C139.718 289.633 140.968 291.017 142.601 292.05C144.235 293.05 146.168 293.55 148.401 293.55ZM168.1 293.35H172V270.5H168.1V267.85H182C185.434 267.85 188.05 268.533 189.85 269.9C191.65 271.267 192.55 273.25 192.55 275.85C192.55 278.617 191.617 280.733 189.75 282.2C187.917 283.633 185.25 284.35 181.75 284.35H178V281.7H181.6C183.767 281.7 185.434 281.2 186.6 280.2C187.767 279.2 188.35 277.767 188.35 275.9C188.35 274.167 187.834 272.833 186.8 271.9C185.8 270.967 184.35 270.5 182.45 270.5H176.1V293.35H180V296H168.1V293.35ZM207.274 284.6C208.808 284.967 210.024 285.367 210.924 285.8C211.858 286.2 212.608 286.8 213.174 287.6C213.741 288.4 214.024 289.467 214.024 290.8C214.024 292.667 213.291 294.083 211.824 295.05C210.358 296.017 208.591 296.5 206.524 296.5C205.258 296.5 204.058 296.3 202.924 295.9C201.791 295.5 200.891 294.967 200.224 294.3V296H197.324V289.2H199.924L200.124 291.35C200.691 292.183 201.508 292.833 202.574 293.3C203.674 293.733 204.824 293.95 206.024 293.95C207.324 293.95 208.391 293.7 209.224 293.2C210.058 292.667 210.474 291.967 210.474 291.1C210.474 290.1 210.158 289.383 209.524 288.95C208.891 288.517 207.708 288.117 205.974 287.75L203.224 287.15C201.191 286.65 199.691 286 198.724 285.2C197.758 284.367 197.274 283.083 197.274 281.35C197.274 279.65 197.941 278.317 199.274 277.35C200.641 276.35 202.391 275.85 204.524 275.85C205.558 275.85 206.608 276.017 207.674 276.35C208.774 276.683 209.641 277.15 210.274 277.75V276.25H213.224V283H210.624L210.274 280.55C209.774 279.95 209.024 279.467 208.024 279.1C207.058 278.7 206.091 278.5 205.124 278.5C203.958 278.5 202.974 278.733 202.174 279.2C201.374 279.667 200.974 280.35 200.974 281.25C200.974 281.983 201.258 282.55 201.824 282.95C202.391 283.35 203.358 283.717 204.724 284.05L207.274 284.6ZM210.824 281.55L210.774 281.45L210.824 281.55ZM199.524 290.1C199.524 290.167 199.541 290.217 199.574 290.25L199.524 290.1Z" fill="black"/>
<defs>
<linearGradient id="paint0_linear" x1="138.042" y1="19.9999" x2="263.996" y2="148.037" gradientUnits="userSpaceOnUse">
<stop stop-color="#1FC5A8"/>
<stop offset="1" stop-color="#5761B2"/>
</linearGradient>
<linearGradient id="paint1_linear" x1="32.508" y1="51.9768" x2="140.462" y2="114.993" gradientUnits="userSpaceOnUse">
<stop stop-color="#77FF6B"/>
<stop offset="1" stop-color="#067D68"/>
</linearGradient>
<linearGradient id="paint2_linear" x1="80" y1="120" x2="205" y2="245" gradientUnits="userSpaceOnUse">
<stop stop-color="#E21C34"/>
<stop offset="1" stop-color="#500B28"/>
</linearGradient>
<linearGradient id="paint3_linear" x1="142.5" y1="120" x2="142.5" y2="245" gradientUnits="userSpaceOnUse">
<stop stop-color="#717171"/>
<stop offset="1" stop-color="#717171" stop-opacity="0"/>
</linearGradient>
</defs>
</svg>
