<svg width="194" height="57" viewBox="0 0 194 57" fill="none" xmlns="http://www.w3.org/2000/svg">
<path d="M101.104 31.224C99.508 35.3027 96.164 37.3673 91.072 37.418C88.868 37.418 86.9173 36.9493 85.22 36.012C83.5227 35.0493 82.2053 33.732 81.268 32.06C80.3307 30.388 79.862 28.4627 79.862 26.284C79.862 24.156 80.318 22.256 81.23 20.584C82.1673 18.912 83.4847 17.6073 85.182 16.67C86.9047 15.7073 88.8807 15.226 91.11 15.226C92.706 15.226 94.1373 15.53 95.404 16.138C96.6707 16.7207 97.6587 17.5313 98.368 18.57V15.606H100.648V22.066L98.596 22.142C97.8107 20.5207 96.8227 19.3427 95.632 18.608C94.4413 17.8733 92.9847 17.506 91.262 17.506C89.6153 17.506 88.1587 17.8987 86.892 18.684C85.6507 19.444 84.688 20.4827 84.004 21.8C83.32 23.1173 82.978 24.5993 82.978 26.246C82.978 28.0193 83.3327 29.5773 84.042 30.92C84.7513 32.2627 85.7393 33.3013 87.006 34.036C88.2727 34.7707 89.6913 35.138 91.262 35.138C92.9847 35.138 94.5173 34.7327 95.86 33.922C97.228 33.1113 98.216 31.832 98.824 30.084L101.104 31.224ZM116.723 37.418C114.443 37.418 112.417 36.924 110.643 35.936C108.895 34.9227 107.54 33.58 106.577 31.908C105.615 30.2107 105.133 28.3613 105.133 26.36C105.133 24.3587 105.615 22.5093 106.577 20.812C107.54 19.0893 108.895 17.734 110.643 16.746C112.417 15.7327 114.443 15.226 116.723 15.226C119.003 15.226 121.017 15.7327 122.765 16.746C124.539 17.734 125.907 19.0893 126.869 20.812C127.832 22.5093 128.313 24.3587 128.313 26.36C128.313 28.3613 127.832 30.2107 126.869 31.908C125.907 33.58 124.539 34.9227 122.765 35.936C121.017 36.924 119.003 37.418 116.723 37.418ZM116.723 35.138C118.421 35.138 119.89 34.7453 121.131 33.96C122.373 33.1747 123.323 32.1233 123.981 30.806C124.665 29.4633 125.007 27.9813 125.007 26.36C125.007 24.7133 124.665 23.2187 123.981 21.876C123.323 20.5333 122.373 19.4693 121.131 18.684C119.89 17.8733 118.421 17.468 116.723 17.468C115.026 17.468 113.557 17.8733 112.315 18.684C111.074 19.4693 110.124 20.546 109.465 21.914C108.807 23.2567 108.477 24.7513 108.477 26.398C108.477 28.0447 108.807 29.5267 109.465 30.844C110.124 32.1613 111.074 33.2127 112.315 33.998C113.557 34.758 115.026 35.138 116.723 35.138ZM143.665 37.418C141.385 37.418 139.358 36.924 137.585 35.936C135.837 34.9227 134.482 33.58 133.519 31.908C132.556 30.2107 132.075 28.3613 132.075 26.36C132.075 24.3587 132.556 22.5093 133.519 20.812C134.482 19.0893 135.837 17.734 137.585 16.746C139.358 15.7327 141.385 15.226 143.665 15.226C145.945 15.226 147.959 15.7327 149.707 16.746C151.48 17.734 152.848 19.0893 153.811 20.812C154.774 22.5093 155.255 24.3587 155.255 26.36C155.255 28.3613 154.774 30.2107 153.811 31.908C152.848 33.58 151.48 34.9227 149.707 35.936C147.959 36.924 145.945 37.418 143.665 37.418ZM143.665 35.138C145.362 35.138 146.832 34.7453 148.073 33.96C149.314 33.1747 150.264 32.1233 150.923 30.806C151.607 29.4633 151.949 27.9813 151.949 26.36C151.949 24.7133 151.607 23.2187 150.923 21.876C150.264 20.5333 149.314 19.4693 148.073 18.684C146.832 17.8733 145.362 17.468 143.665 17.468C141.968 17.468 140.498 17.8733 139.257 18.684C138.016 19.4693 137.066 20.546 136.407 21.914C135.748 23.2567 135.419 24.7513 135.419 26.398C135.419 28.0447 135.748 29.5267 136.407 30.844C137.066 32.1613 138.016 33.2127 139.257 33.998C140.498 34.758 141.968 35.138 143.665 35.138ZM158.636 34.986H161.6V17.62H158.636V15.606H169.2C171.81 15.606 173.798 16.1253 175.166 17.164C176.534 18.2027 177.218 19.71 177.218 21.686C177.218 23.7887 176.509 25.3973 175.09 26.512C173.697 27.6013 171.67 28.146 169.01 28.146H166.16V26.132H168.896C170.543 26.132 171.81 25.752 172.696 24.992C173.583 24.232 174.026 23.1427 174.026 21.724C174.026 20.4067 173.634 19.3933 172.848 18.684C172.088 17.9747 170.986 17.62 169.542 17.62H164.716V34.986H167.68V37H158.636V34.986ZM188.408 28.336C189.574 28.6147 190.498 28.9187 191.182 29.248C191.892 29.552 192.462 30.008 192.892 30.616C193.323 31.224 193.538 32.0347 193.538 33.048C193.538 34.4667 192.981 35.5433 191.866 36.278C190.752 37.0127 189.409 37.38 187.838 37.38C186.876 37.38 185.964 37.228 185.102 36.924C184.241 36.62 183.557 36.2147 183.05 35.708V37H180.846V31.832H182.822L182.974 33.466C183.405 34.0993 184.026 34.5933 184.836 34.948C185.672 35.2773 186.546 35.442 187.458 35.442C188.446 35.442 189.257 35.252 189.89 34.872C190.524 34.4667 190.84 33.9347 190.84 33.276C190.84 32.516 190.6 31.9713 190.118 31.642C189.637 31.3127 188.738 31.0087 187.42 30.73L185.33 30.274C183.785 29.894 182.645 29.4 181.91 28.792C181.176 28.1587 180.808 27.1833 180.808 25.866C180.808 24.574 181.315 23.5607 182.328 22.826C183.367 22.066 184.697 21.686 186.318 21.686C187.104 21.686 187.902 21.8127 188.712 22.066C189.548 22.3193 190.207 22.674 190.688 23.13V21.99H192.93V27.12H190.954L190.688 25.258C190.308 24.802 189.738 24.4347 188.978 24.156C188.244 23.852 187.509 23.7 186.774 23.7C185.888 23.7 185.14 23.8773 184.532 24.232C183.924 24.5867 183.62 25.106 183.62 25.79C183.62 26.3473 183.836 26.778 184.266 27.082C184.697 27.386 185.432 27.6647 186.47 27.918L188.408 28.336ZM191.106 26.018L191.068 25.942L191.106 26.018ZM182.518 32.516C182.518 32.5667 182.531 32.6047 182.556 32.63L182.518 32.516Z" fill="white"/>
<path d="M45.8178 5.69639L57.2306 12.4109L57.1219 25.6519L45.6006 32.1784L34.1879 25.4638L34.2965 12.2228L45.8178 5.69639Z" fill="url(#paint0_linear)"/>
<path d="M46.5785 4.40355L45.832 3.96439L45.0785 4.39124L33.5572 10.9177L32.8036 11.3445L32.7965 12.2105L32.6879 25.4515L32.6808 26.3175L33.4272 26.7566L44.84 33.4712L45.5864 33.9104L46.3399 33.4835L57.8613 26.9571L58.6148 26.5302L58.6219 25.6642L58.7305 12.4233L58.7376 11.5573L57.9912 11.1181L46.5785 4.40355Z" stroke="#717171" stroke-opacity="0.5" stroke-width="3"/>
<path d="M10.5703 12.2556L21.8881 5.79313L33.1437 12.3634L33.0815 25.3962L21.7636 31.8587L10.508 25.2884L10.5703 12.2556Z" fill="url(#paint1_linear)"/>
<path d="M9.82647 10.953L9.07441 11.3825L9.07028 12.2485L9.00806 25.2812L9.00393 26.1473L9.75185 26.5838L21.0074 33.1541L21.7554 33.5907L22.5074 33.1613L33.8252 26.6988L34.5773 26.2693L34.5814 25.4033L34.6436 12.3706L34.6478 11.5045L33.8999 11.068L22.6443 4.49769L21.8963 4.0611L21.1443 4.49053L9.82647 10.953Z" stroke="#717171" stroke-opacity="0.5" stroke-width="3"/>
<path d="M19.7667 12.0001C18.0915 12.0001 16.7333 13.357 16.7333 15.0318C16.7333 16.7065 18.0915 18.0634 19.7667 18.0634C21.4418 18.0634 22.8 16.7065 22.8 15.0318C22.8 13.357 21.4418 12.0001 19.7667 12.0001Z" fill="white"/>
<path d="M18.0333 19.795C16.3582 19.795 15 21.1526 15 22.8279V24.9922H24.5333V22.8279C24.5333 21.1526 23.1752 19.795 21.5 19.795H18.0333Z" fill="white"/>
<path d="M25.8333 20.6668H25.4V25.0001H28V22.8335C28 21.6368 27.03 20.6668 25.8333 20.6668Z" fill="white"/>
<path d="M24.9667 15.4668C23.7701 15.4668 22.8 16.4368 22.8 17.6335C22.8 18.8301 23.7701 19.8001 24.9667 19.8001C26.1633 19.8001 27.1333 18.8301 27.1333 17.6335C27.1333 16.4368 26.1633 15.4668 24.9667 15.4668Z" fill="white"/>
<path d="M33.5 26.0001L45.1913 32.7501V46.2501L33.5 53.0001L21.8087 46.2501V32.7501L33.5 26.0001Z" fill="url(#paint2_linear)"/>
<path d="M34.25 24.7011L33.5 24.2681L32.75 24.7011L21.0587 31.4511L20.3087 31.8841V32.7501V46.2501V47.1161L21.0587 47.5492L32.75 54.2992L33.5 54.7322L34.25 54.2992L45.9413 47.5492L46.6913 47.1161V46.2501V32.7501V31.8841L45.9413 31.4511L34.25 24.7011Z" stroke="url(#paint3_linear)" stroke-opacity="0.5" stroke-width="3"/>
<path d="M39.0666 37.7668C39.0666 36.0842 38.2716 34.5735 37.0129 33.5419L36.3953 34.1916C37.4618 35.0657 38.1333 36.3431 38.1333 37.7668C38.1333 40.3993 35.835 42.5334 32.9999 42.5334C31.6849 42.5334 30.4863 42.0748 29.5778 41.3198L28.9554 41.9656C29.9199 42.7672 31.1633 43.2868 32.5333 43.3837V45.1334H29.7333V46.0001H36.2666V45.1334H33.4666V43.3837C36.5991 43.1624 39.0666 40.7322 39.0666 37.7668Z" fill="white"/>
<path d="M32.9999 34.7334C31.1958 34.7334 29.7333 36.0915 29.7333 37.7668C29.7333 39.442 31.1958 40.8001 32.9999 40.8001C34.8041 40.8001 36.2666 39.442 36.2666 37.7668C36.2666 36.0915 34.8041 34.7334 32.9999 34.7334Z" fill="white"/>
<path fill-rule="evenodd" clip-rule="evenodd" d="M39 13.2995C39 12.581 39.5817 12.0001 40.3 12.0001H50.7C51.4183 12.0001 52 12.581 52 13.2995V21.0945C52 21.813 51.4183 22.3939 50.7 22.3939H45.6444L42.2932 24.9056C42.1619 25.004 41.9863 25.0198 41.8395 24.9464C41.6927 24.873 41.6 24.723 41.6 24.5589V22.3939H40.3C39.5817 22.3939 39 21.813 39 21.0945V13.2995ZM42.4667 15.4645H48.5333V16.3312H42.4667V15.4645ZM42.4667 18.0628H46.8V18.9295H42.4667V18.0628Z" fill="white"/>
<defs>
<linearGradient id="paint0_linear" x1="32.5768" y1="5.58777" x2="58.8416" y2="32.287" gradientUnits="userSpaceOnUse">
<stop stop-color="#1FC5A8"/>
<stop offset="1" stop-color="#5761B2"/>
</linearGradient>
<linearGradient id="paint1_linear" x1="10.5703" y1="12.2556" x2="33.0815" y2="25.3962" gradientUnits="userSpaceOnUse">
<stop stop-color="#77FF6B"/>
<stop offset="1" stop-color="#067D68"/>
</linearGradient>
<linearGradient id="paint2_linear" x1="20" y1="26.0001" x2="47" y2="53.0001" gradientUnits="userSpaceOnUse">
<stop stop-color="#E21C34"/>
<stop offset="1" stop-color="#500B28"/>
</linearGradient>
<linearGradient id="paint3_linear" x1="33.5" y1="26.0001" x2="33.5" y2="53.0001" gradientUnits="userSpaceOnUse">
<stop stop-color="#717171"/>
<stop offset="1" stop-color="#717171" stop-opacity="0"/>
</linearGradient>
</defs>
</svg>
